<svg width="197" height="68" viewBox="0 0 197 68" fill="none" xmlns="http://www.w3.org/2000/svg">
<g clip-path="url(#clip0_5_3)">
<path d="M14 2H54C59.5 2 64 6.5 64 12V52C64 57.5 59.5 62 54 62H14C8.5 62 4 57.5 4 52V12C4 6.5 8.5 2 14 2Z" fill="#FFAA17"/>
<path d="M77.728 10.8H87.304C88.816 11.304 90.1 12.24 91.156 13.608C92.236 14.952 92.776 16.608 92.776 18.576C92.776 21.792 91.504 24.156 88.96 25.668L92.596 36H87.556L84.496 26.82H82.588V36H77.728V10.8ZM82.588 15.12V22.788H85.684C86.092 22.692 86.536 22.284 87.016 21.564C87.52 20.82 87.772 19.956 87.772 18.972C87.772 17.988 87.556 17.124 87.124 16.38C86.716 15.636 86.308 15.216 85.9 15.12H82.588ZM124.464 36L123.708 32.004H118.02L117.264 36H112.368L117.228 10.8H124.68L129.288 36H124.464ZM120.792 15.48L119.388 23.868L118.596 28.152H123.096L122.268 23.868L120.864 15.48H120.792ZM148.593 31.824H152.301C152.733 31.272 153.009 30.636 153.129 29.916C153.249 29.172 153.309 27.684 153.309 25.452V10.8H158.241V23.76C158.241 25.368 158.205 26.616 158.133 27.504C158.085 28.392 157.941 29.4 157.701 30.528C157.245 32.664 156.105 34.488 154.281 36H148.593V31.824ZM186.075 31.824H189.099C189.627 31.248 189.999 30.672 190.215 30.096C190.455 29.496 190.575 28.62 190.575 27.468V10.8H195.507V25.668C195.507 26.892 195.471 27.852 195.399 28.548C195.351 29.22 195.207 30.048 194.967 31.032C194.559 32.784 193.431 34.44 191.583 36H183.591C181.743 34.488 180.615 32.832 180.207 31.032C179.847 29.568 179.667 27.78 179.667 25.668V10.8H184.599V27.468C184.599 28.62 184.707 29.496 184.923 30.096C185.163 30.672 185.547 31.248 186.075 31.824Z" fill="white"/>
<path d="M81.48 50.88H79.98C79.78 51.12 79.6133 51.4533 79.48 51.88C79.36 52.3067 79.3 52.72 79.3 53.12H82.16C82.1867 52.72 82.1333 52.3067 82 51.88C81.8667 51.44 81.6933 51.1067 81.48 50.88ZM84.2 56.9V59H79.12C78.1867 58.3733 77.5267 57.6 77.14 56.68C76.7667 55.7467 76.58 54.8067 76.58 53.86C76.58 51.6733 77.4067 49.98 79.06 48.78H82.3C83.1933 49.4333 83.8 50.1267 84.12 50.86C84.44 51.5933 84.6 52.3333 84.6 53.08C84.6 53.8267 84.54 54.4667 84.42 55H79.44C79.48 55.3067 79.5933 55.66 79.78 56.06C79.98 56.4467 80.1933 56.7267 80.42 56.9H84.2ZM93.982 48.78H96.102C96.6887 49.5267 97.0887 50.2733 97.302 51.02C97.5154 51.7667 97.622 52.7 97.622 53.82V59H94.962V53.62C94.962 52.3533 94.7887 51.44 94.442 50.88H92.202V59H89.542V48.78H91.622L91.982 49.5C92.2754 49.2333 92.5487 49.0467 92.802 48.94C93.0687 48.8333 93.462 48.78 93.982 48.78ZM103.156 54.54V50.88H101.776V48.78H103.156V46H105.816V48.78H107.456V50.88H105.816V55.18C105.816 55.9933 105.956 56.5667 106.236 56.9H107.456V59H104.616C103.909 58.3467 103.483 57.64 103.336 56.88C103.216 56.24 103.156 55.46 103.156 54.54ZM116.811 50.88H115.311C115.111 51.12 114.945 51.4533 114.811 51.88C114.691 52.3067 114.631 52.72 114.631 53.12H117.491C117.518 52.72 117.465 52.3067 117.331 51.88C117.198 51.44 117.025 51.1067 116.811 50.88ZM119.531 56.9V59H114.451C113.518 58.3733 112.858 57.6 112.471 56.68C112.098 55.7467 111.911 54.8067 111.911 53.86C111.911 51.6733 112.738 49.98 114.391 48.78H117.631C118.525 49.4333 119.131 50.1267 119.451 50.86C119.771 51.5933 119.931 52.3333 119.931 53.08C119.931 53.8267 119.871 54.4667 119.751 55H114.771C114.811 55.3067 114.925 55.66 115.111 56.06C115.311 56.4467 115.525 56.7267 115.751 56.9H119.531ZM124.893 59V48.78H126.793L127.293 49.86C127.827 49.14 128.5 48.78 129.313 48.78H130.093V51.46H127.553V59H124.893ZM134.84 48.78H136.98L137.28 49.5C137.574 49.2333 137.847 49.0467 138.1 48.94C138.367 48.8333 138.76 48.78 139.28 48.78H141.08C141.64 49.3267 142.08 50.0333 142.4 50.9C142.72 51.7667 142.88 52.72 142.88 53.76C142.88 55.9867 142.214 57.7333 140.88 59H139.18C138.474 59 137.914 58.8133 137.5 58.44V62H134.84V48.78ZM137.5 56.9H139.42C139.914 56.06 140.16 55.04 140.16 53.84C140.16 52.64 139.907 51.6533 139.4 50.88H137.5V56.9ZM147.933 59V48.78H149.833L150.333 49.86C150.866 49.14 151.54 48.78 152.353 48.78H153.133V51.46H150.593V59H147.933ZM157.88 59V48.78H160.52V59H157.88ZM157.88 45H160.52V47.7H157.88V45ZM166.836 48.78H171.256V50.88H168.136L170.036 53.7C170.889 54.9133 171.362 55.7467 171.456 56.2C171.509 56.4133 171.536 56.6333 171.536 56.86C171.536 57.8067 171.182 58.52 170.476 59H165.376V56.9H169.036L166.896 53.76C166.802 53.6133 166.656 53.4067 166.456 53.14C166.269 52.8733 166.122 52.66 166.016 52.5C165.909 52.3267 165.836 52.2 165.796 52.12C165.756 52.04 165.702 51.94 165.636 51.82C165.569 51.6867 165.522 51.5733 165.496 51.48C165.442 51.2267 165.416 51.02 165.416 50.86C165.416 49.8867 165.889 49.1933 166.836 48.78ZM180.853 50.88H179.353C179.153 51.12 178.986 51.4533 178.853 51.88C178.733 52.3067 178.673 52.72 178.673 53.12H181.533C181.559 52.72 181.506 52.3067 181.373 51.88C181.239 51.44 181.066 51.1067 180.853 50.88ZM183.573 56.9V59H178.493C177.559 58.3733 176.899 57.6 176.513 56.68C176.139 55.7467 175.953 54.8067 175.953 53.86C175.953 51.6733 176.779 49.98 178.433 48.78H181.673C182.566 49.4333 183.173 50.1267 183.493 50.86C183.813 51.5933 183.973 52.3333 183.973 53.08C183.973 53.8267 183.913 54.4667 183.793 55H178.813C178.853 55.3067 178.966 55.66 179.153 56.06C179.353 56.4467 179.566 56.7267 179.793 56.9H183.573ZM189.602 48.78H194.022V50.88H190.902L192.802 53.7C193.656 54.9133 194.129 55.7467 194.222 56.2C194.276 56.4133 194.302 56.6333 194.302 56.86C194.302 57.8067 193.949 58.52 193.242 59H188.142V56.9H191.802L189.662 53.76C189.569 53.6133 189.422 53.4067 189.222 53.14C189.036 52.8733 188.889 52.66 188.782 52.5C188.676 52.3267 188.602 52.2 188.562 52.12C188.522 52.04 188.469 51.94 188.402 51.82C188.336 51.6867 188.289 51.5733 188.262 51.48C188.209 51.2267 188.182 51.02 188.182 50.86C188.182 49.8867 188.656 49.1933 189.602 48.78Z" fill="#FFAA17"/>
<path d="M23 14H36.832C39.016 14.728 40.8707 16.08 42.396 18.056C43.956 19.9973 44.736 22.3893 44.736 25.232C44.736 29.8773 42.8987 33.292 39.224 35.476L44.476 50.4H37.196L32.776 37.14H30.02V50.4H23V14ZM30.02 20.24V31.316H34.492C35.0813 31.1773 35.7227 30.588 36.416 29.548C37.144 28.4733 37.508 27.2253 37.508 25.804C37.508 24.3827 37.196 23.1347 36.572 22.06C35.9827 20.9853 35.3933 20.3787 34.804 20.24H30.02Z" fill="white"/>
</g>
<defs>
<clipPath id="clip0_5_3">
<rect width="197" height="68" fill="white"/>
</clipPath>
</defs>
</svg>
